<svg width="1352" height="552" viewBox="0 0 1352 552" fill="none" xmlns="http://www.w3.org/2000/svg">
<mask id="path-1-outside-1_1_299" maskUnits="userSpaceOnUse" x="0" y="0" width="1352" height="552" fill="#1e1e1e">
<rect fill="white" width="1352" height="552"/>
<path fill-rule="evenodd" clip-rule="evenodd" d="M1351 1H1V551H1351V1ZM933.951 19C950.306 19 963.565 32.2588 963.565 48.6143C963.565 64.9699 976.824 78.2287 993.18 78.2287H1304C1320.57 78.2287 1334 91.6601 1334 108.229V446.767C1334 463.336 1320.57 476.767 1304 476.767H993.565C976.997 476.767 963.565 490.315 963.565 506.884C963.565 523.452 950.134 537 933.565 537H18.9985C18.447 537 18 536.553 18 536.002V476.767V475.764V80.2364V78.2287V49C18 32.4315 31.4315 19 48 19H933.951Z"/>
</mask>
<path fill-rule="evenodd" clip-rule="evenodd" d="M1351 1H1V551H1351V1ZM933.951 19C950.306 19 963.565 32.2588 963.565 48.6143C963.565 64.9699 976.824 78.2287 993.18 78.2287H1304C1320.57 78.2287 1334 91.6601 1334 108.229V446.767C1334 463.336 1320.57 476.767 1304 476.767H993.565C976.997 476.767 963.565 490.315 963.565 506.884C963.565 523.452 950.134 537 933.565 537H18.9985C18.447 537 18 536.553 18 536.002V476.767V475.764V80.2364V78.2287V49C18 32.4315 31.4315 19 48 19H933.951Z" fill="#1e1e1e"/>
<path d="M1 1V0.5H0.5V1H1ZM1351 1H1351.5V0.5H1351V1ZM1 551H0.5V551.5H1V551ZM1351 551V551.5H1351.5V551H1351ZM1 1.5H1351V0.5H1V1.5ZM1.5 551V1H0.5V551H1.5ZM1351 550.5H1V551.5H1351V550.5ZM1350.5 1V551H1351.5V1H1350.5ZM964.065 48.6143C964.065 31.9827 950.583 18.5 933.951 18.5V19.5C950.03 19.5 963.065 32.5349 963.065 48.6143H964.065ZM993.18 77.7287C977.1 77.7287 964.065 64.6937 964.065 48.6143H963.065C963.065 65.246 976.548 78.7287 993.18 78.7287V77.7287ZM1304 77.7287H993.18V78.7287H1304V77.7287ZM1334.5 108.229C1334.5 91.384 1320.85 77.7287 1304 77.7287V78.7287C1320.3 78.7287 1333.5 91.9363 1333.5 108.229H1334.5ZM1334.5 446.767V108.229H1333.5V446.767H1334.5ZM1304 477.267C1320.85 477.267 1334.5 463.612 1334.5 446.767H1333.5C1333.5 463.06 1320.3 476.267 1304 476.267V477.267ZM993.565 477.267H1304V476.267H993.565V477.267ZM964.065 506.884C964.065 490.589 977.275 477.267 993.565 477.267V476.267C976.718 476.267 963.065 490.042 963.065 506.884H964.065ZM933.565 537.5C950.412 537.5 964.065 523.726 964.065 506.884H963.065C963.065 523.179 949.855 536.5 933.565 536.5V537.5ZM18.9985 537.5H933.565V536.5H18.9985V537.5ZM17.5 536.002C17.5 536.829 18.1709 537.5 18.9985 537.5V536.5C18.7232 536.5 18.5 536.277 18.5 536.002H17.5ZM17.5 476.767V536.002H18.5V476.767H17.5ZM17.5 475.764V476.767H18.5V475.764H17.5ZM17.5 80.2364V475.764H18.5V80.2364H17.5ZM17.5 78.2287V80.2364H18.5V78.2287H17.5ZM17.5 49V78.2287H18.5V49H17.5ZM48 18.5C31.1553 18.5 17.5 32.1553 17.5 49H18.5C18.5 32.7076 31.7076 19.5 48 19.5V18.5ZM933.951 18.5H48V19.5H933.951V18.5Z" fill="white" mask="url(#path-1-outside-1_1_299)"/>
</svg>
